<svg width="20" height="20" viewBox="0 0 20 20" fill="none" xmlns="http://www.w3.org/2000/svg">
<path d="M9.99967 2.7085C10.1654 2.7085 10.3244 2.77434 10.4416 2.89155C10.5588 3.00876 10.6247 3.16774 10.6247 3.3335C10.6247 3.49926 10.5588 3.65823 10.4416 3.77544C10.3244 3.89265 10.1654 3.9585 9.99967 3.9585C8.39732 3.9585 6.8606 4.59503 5.72757 5.72806C4.59454 6.86109 3.95801 8.39781 3.95801 10.0002C3.95801 11.6025 4.59454 13.1392 5.72757 14.2723C6.8606 15.4053 8.39732 16.0418 9.99967 16.0418C10.1654 16.0418 10.3244 16.1077 10.4416 16.2249C10.5588 16.3421 10.6247 16.5011 10.6247 16.6668C10.6247 16.8326 10.5588 16.9916 10.4416 17.1088C10.3244 17.226 10.1654 17.2918 9.99967 17.2918C8.0658 17.2918 6.21114 16.5236 4.84369 15.1561C3.47623 13.7887 2.70801 11.934 2.70801 10.0002C2.70801 8.06629 3.47623 6.21163 4.84369 4.84418C6.21114 3.47672 8.0658 2.7085 9.99967 2.7085Z" fill="black"/>
<path d="M13.7247 7.9417C13.6143 7.82322 13.5542 7.66652 13.557 7.5046C13.5599 7.34268 13.6255 7.18819 13.74 7.07368C13.8545 6.95917 14.009 6.89358 14.1709 6.89072C14.3328 6.88787 14.4895 6.94797 14.608 7.05837L17.108 9.55837C17.225 9.67556 17.2908 9.83441 17.2908 10C17.2908 10.1657 17.225 10.3245 17.108 10.4417L14.608 12.9417C14.5508 13.0031 14.4818 13.0524 14.4051 13.0865C14.3285 13.1207 14.2457 13.139 14.1618 13.1405C14.0779 13.142 13.9945 13.1266 13.9167 13.0951C13.8389 13.0637 13.7682 13.0169 13.7088 12.9576C13.6495 12.8982 13.6027 12.8275 13.5712 12.7497C13.5398 12.6719 13.5244 12.5885 13.5258 12.5046C13.5273 12.4207 13.5457 12.3379 13.5799 12.2613C13.614 12.1846 13.6633 12.1156 13.7247 12.0584L15.158 10.625H8.33301C8.16725 10.625 8.00828 10.5592 7.89107 10.442C7.77386 10.3248 7.70801 10.1658 7.70801 10C7.70801 9.83427 7.77386 9.6753 7.89107 9.55809C8.00828 9.44088 8.16725 9.37504 8.33301 9.37504H15.158L13.7247 7.9417Z" fill="black"/>
</svg>
