<svg width="40" height="41" viewBox="0 0 40 41" fill="none" xmlns="http://www.w3.org/2000/svg">
<rect y="0.5" width="40" height="40" rx="20" fill="#FAFAFA"/>
<path d="M15.833 16.3335H14.9997C14.5576 16.3335 14.1337 16.5091 13.8212 16.8217C13.5086 17.1342 13.333 17.5581 13.333 18.0002V25.5002C13.333 25.9422 13.5086 26.3661 13.8212 26.6787C14.1337 26.9912 14.5576 27.1668 14.9997 27.1668H22.4997C22.9417 27.1668 23.3656 26.9912 23.6782 26.6787C23.9907 26.3661 24.1663 25.9422 24.1663 25.5002V24.6668" stroke="#555555" stroke-width="1.66667" stroke-linecap="round" stroke-linejoin="round"/>
<path d="M23.3333 14.6668L25.8333 17.1668M26.9875 15.9876C27.3157 15.6594 27.5001 15.2142 27.5001 14.7501C27.5001 14.2859 27.3157 13.8408 26.9875 13.5126C26.6593 13.1844 26.2142 13 25.75 13C25.2858 13 24.8407 13.1844 24.5125 13.5126L17.5 20.5001V23.0001H20L26.9875 15.9876Z" stroke="#555555" stroke-width="1.66667" stroke-linecap="round" stroke-linejoin="round"/>
</svg>
