<svg width="30" height="30" viewBox="0 0 30 30" fill="none" xmlns="http://www.w3.org/2000/svg">
<rect x="30" y="30" width="30" height="30" rx="15" transform="rotate(-180 30 30)" fill="#EEEEEE"/>
<path d="M12.1427 15.8332L15.4344 19.1249C15.5862 19.282 15.6702 19.4925 15.6683 19.711C15.6664 19.9295 15.5788 20.1385 15.4243 20.293C15.2697 20.4475 15.0607 20.5352 14.8422 20.5371C14.6237 20.539 14.4132 20.455 14.2561 20.3032L9.5419 15.589C9.46425 15.5118 9.40263 15.42 9.36057 15.3189C9.31852 15.2178 9.29688 15.1094 9.29688 14.9998C9.29688 14.8903 9.31852 14.7819 9.36057 14.6808C9.40263 14.5797 9.46425 14.4879 9.5419 14.4107L14.2561 9.69652C14.4139 9.54847 14.6232 9.46765 14.8396 9.47117C15.056 9.47468 15.2626 9.56225 15.4156 9.71534C15.5685 9.86844 15.656 10.075 15.6593 10.2915C15.6627 10.5079 15.5817 10.7171 15.4336 10.8749L12.1419 14.1665L20.1302 14.1665C20.3513 14.1665 20.5632 14.2543 20.7195 14.4106C20.8758 14.5669 20.9636 14.7788 20.9636 14.9999C20.9636 15.2209 20.8758 15.4328 20.7195 15.5891C20.5632 15.7454 20.3513 15.8332 20.1302 15.8332L12.1427 15.8332Z" fill="#333333"/>
</svg>
